<mxfile host="app.diagrams.net" modified="2024-01-06T22:14:25.249Z" agent="Mozilla/5.0 (Macintosh; Intel Mac OS X 10_15_7) AppleWebKit/605.1.15 (KHTML, like Gecko) Version/17.1.2 Safari/605.1.15" etag="5_kmtQOb_ZH2j5ifW_ZT" version="22.1.17" type="device">
  <diagram name="Page-1" id="E7dQQrjD5Hpwq3ozQLwh">
    <mxGraphModel dx="1434" dy="802" grid="1" gridSize="10" guides="1" tooltips="1" connect="1" arrows="1" fold="1" page="1" pageScale="1" pageWidth="827" pageHeight="1169" math="0" shadow="0">
      <root>
        <mxCell id="0" />
        <mxCell id="1" parent="0" />
        <mxCell id="0R7TZ4LiGSo9jSSrpEN1-3" style="edgeStyle=orthogonalEdgeStyle;rounded=0;orthogonalLoop=1;jettySize=auto;html=1;entryX=0;entryY=0.5;entryDx=0;entryDy=0;" edge="1" parent="1" source="0R7TZ4LiGSo9jSSrpEN1-1" target="0R7TZ4LiGSo9jSSrpEN1-2">
          <mxGeometry relative="1" as="geometry" />
        </mxCell>
        <mxCell id="0R7TZ4LiGSo9jSSrpEN1-1" value="" style="verticalLabelPosition=bottom;shadow=0;dashed=0;align=center;html=1;verticalAlign=top;shape=mxgraph.electrical.radio.aerial_-_antenna_1;" vertex="1" parent="1">
          <mxGeometry x="120" y="80" width="80" height="100" as="geometry" />
        </mxCell>
        <mxCell id="0R7TZ4LiGSo9jSSrpEN1-2" value="lora-at" style="rounded=0;whiteSpace=wrap;html=1;" vertex="1" parent="1">
          <mxGeometry x="200" y="200" width="80" height="40" as="geometry" />
        </mxCell>
        <mxCell id="0R7TZ4LiGSo9jSSrpEN1-8" style="edgeStyle=orthogonalEdgeStyle;rounded=0;orthogonalLoop=1;jettySize=auto;html=1;entryX=1;entryY=0.5;entryDx=0;entryDy=0;startArrow=classic;startFill=1;" edge="1" parent="1" source="0R7TZ4LiGSo9jSSrpEN1-5" target="0R7TZ4LiGSo9jSSrpEN1-2">
          <mxGeometry relative="1" as="geometry" />
        </mxCell>
        <mxCell id="0R7TZ4LiGSo9jSSrpEN1-5" value="r2cloud" style="rounded=0;whiteSpace=wrap;html=1;" vertex="1" parent="1">
          <mxGeometry x="360" y="200" width="80" height="40" as="geometry" />
        </mxCell>
      </root>
    </mxGraphModel>
  </diagram>
</mxfile>
